<svg xmlns="http://www.w3.org/2000/svg" width="579" height="61" viewBox="0 0 579 61" fill="none"><g clip-path="url(#clip0_367_2906)"><path d="M30.2512 1.11565C33.0624 0.433752 36.0827 0.840648 38.6781 2.08289C40.2172 2.96392 41.2786 4.49927 41.844 6.14754C42.6834 8.57772 42.7172 11.1975 42.5169 13.7338C42.1761 17.4251 41.2908 21.057 40.0256 24.5406C39.5808 25.7234 39.109 26.9044 38.4725 28.001C38.3451 28.2217 38.2063 28.4381 38.026 28.6208C38.6651 26.957 39.1567 25.2406 39.5686 23.5087C40.1383 21.0363 40.5147 18.507 40.4869 15.9656C40.4696 13.5303 40.0629 11.0312 38.8654 8.87772C37.6262 6.62772 35.4089 4.90444 32.8769 4.3622C30.7584 3.90617 28.5455 4.33117 26.5771 5.16306C23.9358 6.28203 21.6127 8.02513 19.5133 9.95099C18.4407 10.9441 17.4348 12.007 16.4827 13.1148C17.9056 10.6088 19.6746 8.29237 21.715 6.25013C24.0849 3.89841 26.9499 1.89065 30.2512 1.11565Z" fill="white"></path><path d="M22.4617 4.53516C18.8293 8.03947 15.7613 12.1084 13.2752 16.4869C11.8401 19.0446 10.6131 21.7205 9.67222 24.4972C8.78166 27.0774 8.16599 29.7481 7.78011 32.4481C7.44193 34.7515 7.29018 37.0877 7.43673 39.4136C7.60322 41.7455 8.09055 44.1067 9.25513 46.161C10.157 47.7317 11.5106 49.1653 13.283 49.7283C13.1876 49.8308 13.0376 49.836 12.911 49.8783C11.2617 50.3231 9.48145 50.4619 7.82174 49.9921C6.54097 49.6352 5.39721 48.8257 4.64453 47.7352C3.65078 46.3119 3.25449 44.5714 3.10101 42.8705C2.87555 39.9162 3.29612 36.9567 3.90485 34.0705C4.33149 32.0705 4.86738 30.0955 5.46744 28.1412C5.60705 27.7084 5.71718 27.2636 5.90362 26.8472C7.089 24.1938 8.45562 21.6222 9.94537 19.1257C11.8808 15.9076 14.0478 12.8179 16.5409 9.99981C18.3254 7.98947 20.2817 6.11791 22.4617 4.53516Z" fill="white"></path><path d="M38.3512 29.0582C41.1789 29.0383 44.0076 29.0538 46.8362 29.0504C46.8371 29.7306 46.8362 30.4099 46.8371 31.0901C45.7826 31.0952 44.7273 31.0857 43.6729 31.0952C43.6789 34.4323 43.6711 37.7694 43.6763 41.1073C42.9609 41.1099 42.2455 41.0978 41.531 41.1133C41.5033 37.7737 41.5241 34.4323 41.5197 31.0918C40.4636 31.0875 39.4074 31.0978 38.3512 31.0866C38.3607 30.4107 38.3607 29.734 38.3512 29.0582Z" fill="white"></path><path d="M10.8801 29.2021C12.2545 29.2047 13.6298 29.203 15.0051 29.2039C15.7872 29.2116 16.5729 29.2185 17.3498 29.3237C18.3106 29.4642 19.1543 30.1073 19.6157 30.9461C19.9634 31.5823 20.0666 32.3211 20.0501 33.0366C20.0293 33.7194 19.8758 34.4168 19.4847 34.9884C18.9506 35.8375 18.0002 36.3987 17.0047 36.5082C15.776 36.6582 14.5359 36.6099 13.302 36.6142C13.3011 38.1082 13.2907 39.603 13.3072 41.0978C12.4973 41.1151 11.6865 41.1065 10.8757 41.1021C10.8879 37.1358 10.8792 33.1685 10.8801 29.2021ZM13.2959 31.2254C13.3029 32.347 13.3003 33.4685 13.2977 34.5901C14.2073 34.6056 15.1221 34.6203 16.0292 34.5237C16.4731 34.4771 16.9137 34.2858 17.2007 33.9366C17.6126 33.4366 17.6707 32.6918 17.381 32.1203C17.1096 31.6039 16.5338 31.3013 15.9607 31.2668C15.0744 31.2082 14.1839 31.197 13.2959 31.2254Z" fill="white"></path><path d="M20.3936 29.2131C23.223 29.195 26.0543 29.2071 28.8846 29.2071C28.8838 29.8864 28.8846 30.5648 28.8838 31.2441C27.8258 31.2579 26.7671 31.226 25.71 31.2605C25.7326 34.5941 25.7169 37.9295 25.7178 41.264C24.999 41.2553 24.281 41.2622 23.563 41.2605C23.5664 37.9226 23.5621 34.5847 23.5656 31.2467C22.5103 31.2441 21.4549 31.2476 20.3996 31.2459C20.3996 30.5674 20.4109 29.8898 20.3936 29.2131Z" fill="white"></path><path d="M32.3133 33.7139C33.1319 34.5234 33.9496 35.3337 34.7612 36.1509C34.7526 37.8027 34.7604 39.4552 34.7578 41.107C33.9418 41.1604 33.1258 41.2061 32.3098 41.2621C32.3142 38.7458 32.3081 36.2302 32.3133 33.7139Z" fill="white"></path><path d="M29.6382 38.366C30.4672 37.2108 31.2606 35.9841 31.6326 34.5996C31.6742 36.61 31.6248 38.6203 31.6508 40.6315C31.6491 40.7384 31.5806 40.8272 31.5363 40.9212C30.0371 43.7229 27.7157 45.997 25.1958 47.9013C23.4676 49.1987 21.6128 50.3246 19.6946 51.3229C18.4668 51.9686 17.1747 52.5039 15.8237 52.8332C14.0868 53.26 12.2433 53.3332 10.4995 52.9048C8.23708 52.3556 6.19495 50.9996 4.77197 49.1737C5.84029 50.2608 7.33265 50.8531 8.83541 51.0169C10.8194 51.2427 12.8182 50.8005 14.6661 50.097C17.5459 48.9867 20.1169 47.2315 22.5319 45.3427C25.1472 43.2893 27.6481 41.0384 29.6382 38.366Z" fill="white"></path><path d="M0.995499 54.2545C7.86241 54.264 14.7302 54.258 21.5971 54.258C22.5908 54.2408 23.6869 54.2451 24.522 54.8589C25.3284 54.2192 26.421 54.2425 27.3983 54.252C34.1386 54.2554 40.878 54.2554 47.6175 54.2528C47.6166 54.5554 47.6244 54.8589 47.6114 55.1632C40.7029 55.164 33.7943 55.1666 26.8858 55.1597C26.3282 55.1658 25.736 55.1933 25.2408 55.4735C25.0969 55.5459 25.0128 55.6847 24.9495 55.8261C24.6546 55.8373 24.3607 55.852 24.0667 55.8727C24.0459 55.5718 23.7502 55.4287 23.4961 55.3485C22.6845 55.0873 21.8208 55.1839 20.9831 55.1701C14.3209 55.1735 7.65863 55.1623 0.996366 55.1752C0.989429 54.8683 0.991163 54.5614 0.995499 54.2545Z" fill="white"></path><path d="M0.991211 55.8301C8.03501 55.8335 15.078 55.8309 22.1209 55.8309C22.8675 55.8801 23.5881 56.2421 24.0485 56.8327C24.0503 57.7775 24.0494 58.7232 24.0485 59.668C23.5881 58.8439 22.5683 58.5758 21.683 58.5749C14.7866 58.5956 7.8902 58.6318 0.99468 58.6758C0.989477 57.7275 0.995547 56.7784 0.991211 55.8301Z" fill="white"></path><path d="M24.5568 56.8417C25.0198 56.2305 25.7664 55.8701 26.5295 55.8288C33.5542 55.8322 40.5798 55.8382 47.6046 55.8262C47.6375 56.7736 47.6089 57.7236 47.6184 58.6719C40.7047 58.6382 33.791 58.5917 26.8764 58.5762C26.0066 58.5839 25.0224 58.8589 24.5602 59.6563C24.5568 58.7184 24.5654 57.7796 24.5568 56.8417Z" fill="white"></path><path d="M35.9916 23.0758C36.0202 22.9663 36.0826 22.8698 36.1381 22.7715C35.8702 24.8749 35.5302 26.9706 35.2398 29.0723C34.6726 29.3517 34.1385 29.6982 33.5575 29.9499C34.2105 28.0784 34.9024 26.2206 35.571 24.3542C35.7158 23.9292 35.904 23.518 35.9916 23.0758Z" fill="white"></path><path d="M29.7412 29.084C30.6344 29.4771 31.5137 29.9021 32.4051 30.2986C32.5239 30.3478 32.6331 30.4176 32.7329 30.4995C32.1172 30.7279 31.4989 30.9495 30.8832 31.1788C30.5 30.4823 30.0976 29.7943 29.7412 29.084Z" fill="white"></path><path d="M28.4353 35.4414C29.971 33.9595 31.4877 32.4569 33.0329 30.9854C33.5931 32.3741 34.1897 33.7509 34.7039 35.156C34.0596 34.4595 33.4483 33.7319 32.83 33.0121C31.3056 33.8836 29.8193 34.8259 28.2827 35.675C28.3243 35.5914 28.3651 35.5052 28.4353 35.4414Z" fill="white"></path><path d="M32.7121 29.0288C33.8055 27.0451 34.8721 25.0451 35.9916 23.0762C35.904 23.5184 35.7159 23.9296 35.571 24.3546C34.9025 26.221 34.2105 28.0788 33.5575 29.9503C34.1385 29.6986 34.6727 29.352 35.2398 29.0727C36.1442 29.0426 37.0504 29.071 37.9557 29.0348C37.9583 29.0581 37.9644 29.1038 37.967 29.127C37.9479 29.1305 37.9106 29.1374 37.8915 29.1417C37.725 29.1719 37.5603 29.2055 37.4007 29.2607C36.0558 29.7322 34.7048 30.1857 33.3598 30.6563C33.8021 30.9141 34.2981 31.0624 34.7585 31.2848C34.7516 32.6038 34.7689 33.9236 34.7499 35.2426C34.7377 35.221 34.7152 35.1779 34.7039 35.1563C34.1897 33.7512 33.5931 32.3744 33.0329 30.9857C31.4877 32.4572 29.971 33.9598 28.4353 35.4417C28.3651 35.5055 28.3243 35.5917 28.2827 35.6753C28.2307 35.7719 28.0997 35.7891 28.0156 35.8494C28.9825 34.3003 29.9233 32.7339 30.8833 31.1796C31.4989 30.9503 32.1172 30.7288 32.7329 30.5003C32.6332 30.4184 32.5239 30.3486 32.4051 30.2994C31.5137 29.9029 30.6344 29.4779 29.7412 29.0848L29.7083 29.071C30.709 29.046 31.7105 29.0538 32.7121 29.0288Z" fill="white"></path><path d="M37.4008 29.2606C37.5603 29.2054 37.7251 29.1718 37.8916 29.1416C36.8571 29.87 35.8026 30.5709 34.7586 31.2847C34.2981 31.0623 33.8021 30.914 33.3599 30.6563C34.7048 30.1856 36.0558 29.7321 37.4008 29.2606Z" fill="white"></path></g><path d="M66.5428 23.1904V7.68945H69.787V13.9844H76.7694V7.68945H80.0135V23.1904H76.7694V16.6592H69.787V23.1904H66.5428ZM90.0248 23.459C85.4164 23.459 82.5483 20.376 82.5483 15.4453V15.4238C82.5483 10.4932 85.4379 7.4209 90.0248 7.4209C94.6225 7.4209 97.5014 10.5039 97.5014 15.4238V15.4453C97.5014 20.376 94.6332 23.459 90.0248 23.459ZM90.0248 20.709C92.603 20.709 94.1928 18.6572 94.1928 15.4453V15.4238C94.1928 12.1904 92.5707 10.1709 90.0248 10.1709C87.4897 10.1709 85.8569 12.1797 85.8569 15.4238V15.4453C85.8569 18.6895 87.4789 20.709 90.0248 20.709ZM90.0248 27.9277C89.0795 27.9277 88.3491 27.1865 88.3491 26.2949C88.3491 25.4033 89.0795 24.6621 90.0248 24.6621C90.9702 24.6621 91.7006 25.4033 91.7006 26.2949C91.7006 27.1865 90.9702 27.9277 90.0248 27.9277ZM106.933 23.459C102.399 23.459 99.5527 20.4297 99.5527 15.4346V15.4238C99.5527 10.4287 102.41 7.4209 106.933 7.4209C110.692 7.4209 113.389 9.79492 113.689 13.082L113.7 13.1787H110.542L110.499 12.9961C110.134 11.2881 108.866 10.1709 106.933 10.1709C104.451 10.1709 102.861 12.1689 102.861 15.4131V15.4238C102.861 18.6895 104.451 20.709 106.933 20.709C108.802 20.709 110.112 19.6348 110.531 17.7979L110.553 17.6904H113.711L113.7 17.8086C113.399 21.1064 110.682 23.459 106.933 23.459ZM125.161 23.1904L119.973 7.68945H123.561L127.106 19.8711H127.17L130.704 7.68945H134.303L129.114 23.1904H125.161ZM136.333 23.1904V7.68945H139.577V23.1904H136.333ZM143.991 6.41113L146.462 2.86621H148.976L151.479 6.41113H149.244L147.708 4.2627L146.226 6.41113H143.991ZM142.595 23.1904V7.68945H152.864V10.3643H145.839V14.0811H152.467V16.6162H145.839V20.5156H152.864V23.1904H142.595ZM147.73 27.9277C146.795 27.9277 146.054 27.1865 146.054 26.2949C146.054 25.4033 146.795 24.6621 147.73 24.6621C148.675 24.6621 149.406 25.4033 149.406 26.2949C149.406 27.1865 148.675 27.9277 147.73 27.9277ZM155.646 23.1904V7.68945H158.482L165.486 17.7656H165.551V7.68945H168.784V23.1904H165.97L158.944 13.0391H158.88V23.1904H155.646ZM183.511 23.459C178.977 23.459 176.131 20.4297 176.131 15.4346V15.4238C176.131 10.4287 178.988 7.4209 183.511 7.4209C187.27 7.4209 189.967 9.79492 190.267 13.082L190.278 13.1787H187.12L187.077 12.9961C186.712 11.2881 185.444 10.1709 183.511 10.1709C181.029 10.1709 179.439 12.1689 179.439 15.4131V15.4238C179.439 18.6895 181.029 20.709 183.511 20.709C185.38 20.709 186.69 19.6348 187.109 17.7979L187.131 17.6904H190.289L190.278 17.8086C189.977 21.1064 187.26 23.459 183.511 23.459ZM195.982 6.41113L198.463 2.86621H200.977L203.469 6.41113H201.235L199.699 4.2627L198.216 6.41113H195.982ZM199.731 23.459C195.123 23.459 192.254 20.376 192.254 15.4453V15.4238C192.254 10.4932 195.144 7.4209 199.731 7.4209C204.329 7.4209 207.207 10.5039 207.207 15.4238V15.4453C207.207 20.376 204.339 23.459 199.731 23.459ZM199.731 20.709C202.309 20.709 203.899 18.6572 203.899 15.4453V15.4238C203.899 12.1904 202.277 10.1709 199.731 10.1709C197.196 10.1709 195.563 12.1797 195.563 15.4238V15.4453C195.563 18.6895 197.185 20.709 199.731 20.709ZM209.742 23.1904V7.68945H212.578L219.582 17.7656H219.647V7.68945H222.88V23.1904H220.065L213.04 13.0391H212.976V23.1904H209.742ZM232.891 23.459C228.261 23.459 225.425 20.4404 225.425 15.3916V15.3809C225.425 10.418 228.272 7.4209 232.816 7.4209C236.544 7.4209 239.079 9.59082 239.594 12.502L239.627 12.6523H236.372L236.329 12.5449C235.813 11.041 234.578 10.1709 232.827 10.1709C230.27 10.1709 228.734 12.0615 228.734 15.3486V15.3594C228.734 18.7217 230.367 20.709 232.945 20.709C235.061 20.709 236.511 19.4521 236.597 17.54L236.608 17.3145H233.063V14.8975H239.766V16.6807C239.766 20.9023 237.21 23.459 232.891 23.459ZM247.156 23.1904V7.68945H249.992L256.996 17.7656H257.06V7.68945H260.294V23.1904H257.479L250.454 13.0391H250.389V23.1904H247.156ZM270.305 23.459C265.675 23.459 262.839 20.4404 262.839 15.3916V15.3809C262.839 10.418 265.686 7.4209 270.23 7.4209C273.957 7.4209 276.492 9.59082 277.008 12.502L277.04 12.6523H273.785L273.742 12.5449C273.227 11.041 271.991 10.1709 270.241 10.1709C267.684 10.1709 266.148 12.0615 266.148 15.3486V15.3594C266.148 18.7217 267.781 20.709 270.359 20.709C272.475 20.709 273.925 19.4521 274.011 17.54L274.022 17.3145H270.477V14.8975H277.18V16.6807C277.18 20.9023 274.623 23.459 270.305 23.459ZM279.768 23.1904V7.68945H283.013V13.9844H289.995V7.68945H293.239V23.1904H289.995V16.6592H283.013V23.1904H279.768ZM297.654 6.41113L300.124 2.86621H302.638L305.141 6.41113H302.907L301.37 4.2627L299.888 6.41113H297.654ZM296.257 23.1904V7.68945H306.527V10.3643H299.501V14.0811H306.129V16.6162H299.501V20.5156H306.527V23.1904H296.257ZM301.392 27.9277C300.457 27.9277 299.716 27.1865 299.716 26.2949C299.716 25.4033 300.457 24.6621 301.392 24.6621C302.337 24.6621 303.068 25.4033 303.068 26.2949C303.068 27.1865 302.337 27.9277 301.392 27.9277ZM314.11 23.1904V7.68945H320.856C323.778 7.68945 325.615 9.19336 325.615 11.5781V11.5996C325.615 13.2969 324.326 14.7471 322.618 14.9727V15.0371C324.777 15.1982 326.334 16.7236 326.334 18.7539V18.7754C326.334 21.4932 324.283 23.1904 320.974 23.1904H314.11ZM320.018 10.0957H317.354V14.167H319.621C321.447 14.167 322.424 13.4043 322.424 12.0615V12.04C322.424 10.8047 321.533 10.0957 320.018 10.0957ZM320.007 16.3691H317.354V20.7734H320.147C322.005 20.7734 323.026 20.0107 323.026 18.5713V18.5498C323.026 17.1318 321.995 16.3691 320.007 16.3691ZM335.121 23.459C331.147 23.459 328.622 21.1602 328.622 17.7119V7.68945H331.866V17.4219C331.866 19.4307 333.037 20.709 335.121 20.709C337.205 20.709 338.365 19.4307 338.365 17.4219V7.68945C340.729 7.39941 341.255 6.72266 341.233 4.45605H343.65C343.65 6.75488 343.124 7.94727 341.609 8.62402V17.7119C341.609 21.1494 339.117 23.459 335.121 23.459ZM351.674 23.459C347.7 23.459 345.175 21.1602 345.175 17.7119V7.68945H348.42V17.4219C348.42 19.4307 349.59 20.709 351.674 20.709C353.758 20.709 354.919 19.4307 354.919 17.4219V7.68945H358.163V17.7119C358.163 21.1494 355.671 23.459 351.674 23.459ZM372.889 23.459C368.356 23.459 365.51 20.4297 365.51 15.4346V15.4238C365.51 10.4287 368.367 7.4209 372.889 7.4209C376.649 7.4209 379.345 9.79492 379.646 13.082L379.657 13.1787H376.499L376.456 12.9961C376.091 11.2881 374.823 10.1709 372.889 10.1709C370.408 10.1709 368.818 12.1689 368.818 15.4131V15.4238C368.818 18.6895 370.408 20.709 372.889 20.709C374.759 20.709 376.069 19.6348 376.488 17.7979L376.51 17.6904H379.668L379.657 17.8086C379.356 21.1064 376.638 23.459 372.889 23.459ZM382.117 23.1904V7.68945H385.361V13.9844H392.343V7.68945H395.587V23.1904H392.343V16.6592H385.361V23.1904H382.117ZM401.033 6.41113H398.949L400.818 2.86621H403.568L401.033 6.41113ZM398.605 23.1904V7.68945H401.849V23.1904H398.605ZM404.868 23.1904V7.68945H407.704L414.707 17.7656H414.772V7.68945H418.005V23.1904H415.191L408.165 13.0391H408.101V23.1904H404.868ZM421.034 23.1904V7.68945H424.278V13.9844H431.261V7.68945H434.505V23.1904H431.261V16.6592H424.278V23.1904H421.034ZM446.525 23.1904L441.336 7.68945H444.924L448.469 19.8711H448.533L452.068 7.68945H455.666L450.478 23.1904H446.525ZM457.696 23.1904V7.68945H460.94V23.1904H457.696ZM470.447 4.37012C469.942 4.37012 469.48 4.25195 469.029 4.00488L468.76 3.84375C468.47 3.68262 468.277 3.60742 468.03 3.60742C467.675 3.60742 467.525 3.86523 467.525 4.33789V4.37012H465.946V4.27344C465.946 2.95215 466.708 2.24316 467.74 2.24316C468.223 2.24316 468.696 2.37207 469.136 2.62988L469.415 2.78027C469.705 2.95215 469.899 3.0166 470.167 3.0166C470.511 3.0166 470.672 2.75879 470.672 2.28613V2.24316H472.24V2.33984C472.24 3.67188 471.467 4.37012 470.447 4.37012ZM468.051 4.81055H470.124L472.445 6.98047H470.296L469.082 5.8418L467.901 6.98047H465.752L468.051 4.81055ZM463.958 23.1904V7.68945H474.228V10.3643H467.202V14.0811H473.83V16.6162H467.202V20.5156H474.228V23.1904H463.958ZM477.01 23.1904V7.68945H479.845L486.849 17.7656H486.914V7.68945H490.147V23.1904H487.333L480.307 13.0391H480.243V23.1904H477.01ZM501.684 23.1904V10.3643H497.204V7.68945H509.418V10.3643H504.928V23.1904H501.684ZM511.652 23.1904V7.68945H514.896V13.9844H521.878V7.68945H525.123V23.1904H521.878V16.6592H514.896V23.1904H511.652ZM531.385 6.41113L533.866 2.86621H536.38L538.872 6.41113H536.638L535.102 4.2627L533.619 6.41113H531.385ZM535.134 23.459C530.525 23.459 527.657 20.376 527.657 15.4453V15.4238C527.657 10.4932 530.547 7.4209 535.134 7.4209C539.731 7.4209 542.61 10.5039 542.61 15.4238V15.4453C542.61 20.376 539.742 23.459 535.134 23.459ZM535.134 20.709C537.712 20.709 539.302 18.6572 539.302 15.4453V15.4238C539.302 12.1904 537.68 10.1709 535.134 10.1709C532.599 10.1709 530.966 12.1797 530.966 15.4238V15.4453C530.966 18.6895 532.588 20.709 535.134 20.709ZM545.145 23.1904V7.68945H547.981L554.985 17.7656H555.049V7.68945H558.283V23.1904H555.468L548.443 13.0391H548.379V23.1904H545.145ZM568.294 23.459C563.664 23.459 560.828 20.4404 560.828 15.3916V15.3809C560.828 10.418 563.675 7.4209 568.219 7.4209C571.946 7.4209 574.482 9.59082 574.997 12.502L575.029 12.6523H571.775L571.732 12.5449C571.216 11.041 569.981 10.1709 568.23 10.1709C565.673 10.1709 564.137 12.0615 564.137 15.3486V15.3594C564.137 18.7217 565.77 20.709 568.348 20.709C570.464 20.709 571.914 19.4521 572 17.54L572.011 17.3145H568.466V14.8975H575.169V16.6807C575.169 20.9023 572.612 23.459 568.294 23.459Z" fill="white"></path><path d="M66.621 53.1904V39.0986H71.6405C74.287 39.0986 76.162 40.9248 76.162 43.6006V43.6201C76.162 46.2959 74.287 48.1611 71.6405 48.1611H68.3788V53.1904H66.621ZM71.1913 40.6611H68.3788V46.5986H71.1913C73.203 46.5986 74.3651 45.4951 74.3651 43.6396V43.6201C74.3651 41.7646 73.203 40.6611 71.1913 40.6611ZM82.8405 53.3857C80.0182 53.3857 78.1335 51.3447 78.1335 48.1123V48.0928C78.1335 44.8604 80.028 42.8389 82.8307 42.8389C85.6335 42.8389 87.5378 44.8506 87.5378 48.0928V48.1123C87.5378 51.3545 85.6432 53.3857 82.8405 53.3857ZM82.8503 51.8818C84.6374 51.8818 85.7995 50.4951 85.7995 48.1123V48.0928C85.7995 45.71 84.6276 44.3428 82.8307 44.3428C81.0632 44.3428 79.8718 45.7197 79.8718 48.0928V48.1123C79.8718 50.5049 81.0534 51.8818 82.8503 51.8818ZM94.06 53.3857C91.6675 53.3857 90.2221 52.165 90.0171 50.3486L90.0073 50.2607H91.7065L91.726 50.3584C91.9311 51.374 92.6831 51.9697 94.0698 51.9697C95.4468 51.9697 96.2671 51.3936 96.2671 50.4756V50.4658C96.2671 49.7334 95.8862 49.3232 94.7339 49.04L93.1225 48.6494C91.2085 48.1904 90.2807 47.3018 90.2807 45.8369V45.8271C90.2807 44.0791 91.8139 42.8389 94.0112 42.8389C96.2378 42.8389 97.6538 44.1377 97.7807 45.8369L97.7905 45.9639H96.1694L96.1596 45.8955C96.0229 44.9092 95.271 44.2549 94.0112 44.2549C92.7807 44.2549 92.019 44.8506 92.019 45.749V45.7588C92.019 46.4521 92.478 46.9307 93.601 47.2041L95.2124 47.5947C97.2632 48.0928 98.0053 48.9033 98.0053 50.3486V50.3584C98.0053 52.1357 96.3257 53.3857 94.06 53.3857ZM104.274 53.3857C102.408 53.3857 101.491 52.5459 101.491 50.6025V44.4404H100.006V43.0342H101.491V40.29H103.248V43.0342H105.182V44.4404H103.248V50.5928C103.248 51.6768 103.727 51.9795 104.635 51.9795C104.84 51.9795 105.035 51.9502 105.182 51.9404V53.3174C104.967 53.3467 104.606 53.3857 104.274 53.3857ZM111.812 53.3857C109.419 53.3857 107.974 52.165 107.769 50.3486L107.759 50.2607H109.458L109.478 50.3584C109.683 51.374 110.435 51.9697 111.821 51.9697C113.198 51.9697 114.019 51.3936 114.019 50.4756V50.4658C114.019 49.7334 113.638 49.3232 112.485 49.04L110.874 48.6494C108.96 48.1904 108.032 47.3018 108.032 45.8369V45.8271C108.032 44.0791 109.566 42.8389 111.763 42.8389C113.989 42.8389 115.405 44.1377 115.532 45.8369L115.542 45.9639H113.921L113.911 45.8955C113.774 44.9092 113.023 44.2549 111.763 44.2549C110.532 44.2549 109.771 44.8506 109.771 45.749V45.7588C109.771 46.4521 110.23 46.9307 111.353 47.2041L112.964 47.5947C115.015 48.0928 115.757 48.9033 115.757 50.3486V50.3584C115.757 52.1357 114.077 53.3857 111.812 53.3857ZM126.995 53.3857C124.973 53.3857 123.616 52.165 123.616 50.3193V50.2998C123.616 48.5713 124.964 47.4873 127.298 47.3506L130.208 47.1846V46.335C130.208 45.0947 129.397 44.3428 127.981 44.3428C126.673 44.3428 125.852 44.9678 125.657 45.876L125.637 45.9639H123.997L124.007 45.8564C124.153 44.1865 125.608 42.8389 128.001 42.8389C130.403 42.8389 131.907 44.1377 131.907 46.1689V53.1904H130.208V51.54H130.169C129.573 52.6533 128.352 53.3857 126.995 53.3857ZM125.354 50.3193C125.354 51.2959 126.155 51.9111 127.376 51.9111C128.977 51.9111 130.208 50.8076 130.208 49.333V48.5029L127.493 48.6689C126.135 48.7471 125.354 49.3525 125.354 50.2998V50.3193ZM135.265 53.1904V43.0342H136.964V44.4795H137.003C137.55 43.5322 138.585 42.8389 140.128 42.8389C142.355 42.8389 143.644 44.2842 143.644 46.5986V53.1904H141.945V46.9014C141.945 45.251 141.173 44.3428 139.611 44.3428C138.009 44.3428 136.964 45.4854 136.964 47.2139V53.1904H135.265ZM150.83 53.3857C148.233 53.3857 146.514 51.3154 146.514 48.1123V48.1025C146.514 44.8994 148.252 42.8389 150.801 42.8389C152.237 42.8389 153.418 43.5615 154.053 44.7334H154.092V39.0986H155.791V53.1904H154.092V51.4717H154.053C153.418 52.6533 152.285 53.3857 150.83 53.3857ZM151.162 51.8818C152.881 51.8818 154.102 50.3877 154.102 48.1123V48.1025C154.102 45.8369 152.871 44.3428 151.162 44.3428C149.366 44.3428 148.252 45.7881 148.252 48.1025V48.1123C148.252 50.4463 149.366 51.8818 151.162 51.8818ZM168.416 53.1904V40.6807H163.973V39.0986H174.617V40.6807H170.174V53.1904H168.416ZM178.952 53.3857C176.032 53.3857 174.274 51.3447 174.274 48.1514V48.1416C174.274 44.9971 176.071 42.8389 178.844 42.8389C181.618 42.8389 183.307 44.8994 183.307 47.9463V48.5713H175.993C176.032 50.6611 177.184 51.8818 178.991 51.8818C180.28 51.8818 181.188 51.2373 181.481 50.3682L181.51 50.2803H183.18L183.161 50.3779C182.829 52.0576 181.169 53.3857 178.952 53.3857ZM178.835 44.3428C177.36 44.3428 176.208 45.3486 176.022 47.2432H181.579C181.413 45.2705 180.319 44.3428 178.835 44.3428ZM186.314 53.1904V39.0986H188.013V53.1904H186.314ZM195.688 53.3857C192.768 53.3857 191.01 51.3447 191.01 48.1514V48.1416C191.01 44.9971 192.807 42.8389 195.58 42.8389C198.354 42.8389 200.043 44.8994 200.043 47.9463V48.5713H192.729C192.768 50.6611 193.92 51.8818 195.727 51.8818C197.016 51.8818 197.924 51.2373 198.217 50.3682L198.246 50.2803H199.916L199.897 50.3779C199.565 52.0576 197.905 53.3857 195.688 53.3857ZM195.571 44.3428C194.096 44.3428 192.944 45.3486 192.758 47.2432H198.315C198.149 45.2705 197.055 44.3428 195.571 44.3428ZM207.171 53.3857C204.29 53.3857 202.464 51.335 202.464 48.1025V48.0928C202.464 44.8896 204.329 42.8389 207.151 42.8389C209.681 42.8389 211.175 44.5186 211.39 46.2568L211.399 46.335H209.739L209.72 46.2568C209.466 45.2412 208.646 44.3428 207.151 44.3428C205.384 44.3428 204.202 45.8076 204.202 48.1123V48.1221C204.202 50.4854 205.413 51.8818 207.171 51.8818C208.558 51.8818 209.446 51.1006 209.73 49.9678L209.749 49.8896H211.419L211.409 49.958C211.136 51.8916 209.466 53.3857 207.171 53.3857ZM218.391 53.3857C215.568 53.3857 213.683 51.3447 213.683 48.1123V48.0928C213.683 44.8604 215.578 42.8389 218.381 42.8389C221.183 42.8389 223.088 44.8506 223.088 48.0928V48.1123C223.088 51.3545 221.193 53.3857 218.391 53.3857ZM218.4 51.8818C220.187 51.8818 221.349 50.4951 221.349 48.1123V48.0928C221.349 45.71 220.178 44.3428 218.381 44.3428C216.613 44.3428 215.422 45.7197 215.422 48.0928V48.1123C215.422 50.5049 216.603 51.8818 218.4 51.8818ZM226.007 53.1904V43.0342H227.706V44.5186H227.745C228.204 43.5127 229.219 42.8389 230.528 42.8389C231.915 42.8389 232.94 43.5518 233.38 44.792H233.419C233.985 43.5713 235.176 42.8389 236.602 42.8389C238.614 42.8389 239.913 44.1572 239.913 46.1787V53.1904H238.214V46.5693C238.214 45.1729 237.442 44.3428 236.104 44.3428C234.757 44.3428 233.809 45.3486 233.809 46.7354V53.1904H232.11V46.3838C232.11 45.1533 231.29 44.3428 230.03 44.3428C228.682 44.3428 227.706 45.4072 227.706 46.8232V53.1904H226.007ZM243.281 53.1904V43.0342H244.98V44.5186H245.019C245.478 43.5127 246.494 42.8389 247.802 42.8389C249.189 42.8389 250.214 43.5518 250.654 44.792H250.693C251.259 43.5713 252.451 42.8389 253.876 42.8389C255.888 42.8389 257.187 44.1572 257.187 46.1787V53.1904H255.488V46.5693C255.488 45.1729 254.716 44.3428 253.378 44.3428C252.031 44.3428 251.083 45.3486 251.083 46.7354V53.1904H249.384V46.3838C249.384 45.1533 248.564 44.3428 247.304 44.3428C245.957 44.3428 244.98 45.4072 244.98 46.8232V53.1904H243.281ZM264.022 53.3857C261.795 53.3857 260.506 51.9404 260.506 49.626V43.0342H262.205V49.3232C262.205 50.9736 262.977 51.8818 264.539 51.8818C266.141 51.8818 267.186 50.7393 267.186 49.0107V43.0342H268.885V53.1904H267.186V51.7451H267.147C266.6 52.6924 265.565 53.3857 264.022 53.3857ZM272.302 53.1904V43.0342H274.001V44.4795H274.04C274.587 43.5322 275.622 42.8389 277.165 42.8389C279.392 42.8389 280.681 44.2842 280.681 46.5986V53.1904H278.982V46.9014C278.982 45.251 278.21 44.3428 276.648 44.3428C275.046 44.3428 274.001 45.4854 274.001 47.2139V53.1904H272.302ZM285.006 41.3154C284.42 41.3154 283.941 40.8369 283.941 40.251C283.941 39.6553 284.42 39.1865 285.006 39.1865C285.601 39.1865 286.07 39.6553 286.07 40.251C286.07 40.8369 285.601 41.3154 285.006 41.3154ZM284.156 53.1904V43.0342H285.855V53.1904H284.156ZM293.579 53.3857C290.698 53.3857 288.872 51.335 288.872 48.1025V48.0928C288.872 44.8896 290.737 42.8389 293.559 42.8389C296.089 42.8389 297.583 44.5186 297.798 46.2568L297.807 46.335H296.147L296.128 46.2568C295.874 45.2412 295.053 44.3428 293.559 44.3428C291.792 44.3428 290.61 45.8076 290.61 48.1123V48.1221C290.61 50.4854 291.821 51.8818 293.579 51.8818C294.965 51.8818 295.854 51.1006 296.137 49.9678L296.157 49.8896H297.827L297.817 49.958C297.544 51.8916 295.874 53.3857 293.579 53.3857ZM303.558 53.3857C301.537 53.3857 300.179 52.165 300.179 50.3193V50.2998C300.179 48.5713 301.527 47.4873 303.861 47.3506L306.771 47.1846V46.335C306.771 45.0947 305.96 44.3428 304.544 44.3428C303.236 44.3428 302.415 44.9678 302.22 45.876L302.201 45.9639H300.56L300.57 45.8564C300.716 44.1865 302.171 42.8389 304.564 42.8389C306.966 42.8389 308.47 44.1377 308.47 46.1689V53.1904H306.771V51.54H306.732C306.136 52.6533 304.915 53.3857 303.558 53.3857ZM301.917 50.3193C301.917 51.2959 302.718 51.9111 303.939 51.9111C305.54 51.9111 306.771 50.8076 306.771 49.333V48.5029L304.056 48.6689C302.699 48.7471 301.917 49.3525 301.917 50.2998V50.3193ZM315.129 53.3857C313.264 53.3857 312.346 52.5459 312.346 50.6025V44.4404H310.862V43.0342H312.346V40.29H314.104V43.0342H316.037V44.4404H314.104V50.5928C314.104 51.6768 314.582 51.9795 315.491 51.9795C315.696 51.9795 315.891 51.9502 316.037 51.9404V53.3174C315.823 53.3467 315.461 53.3857 315.129 53.3857ZM320.021 41.3154C319.435 41.3154 318.956 40.8369 318.956 40.251C318.956 39.6553 319.435 39.1865 320.021 39.1865C320.616 39.1865 321.085 39.6553 321.085 40.251C321.085 40.8369 320.616 41.3154 320.021 41.3154ZM319.171 53.1904V43.0342H320.87V53.1904H319.171ZM328.594 53.3857C325.771 53.3857 323.887 51.3447 323.887 48.1123V48.0928C323.887 44.8604 325.781 42.8389 328.584 42.8389C331.387 42.8389 333.291 44.8506 333.291 48.0928V48.1123C333.291 51.3545 331.396 53.3857 328.594 53.3857ZM328.603 51.8818C330.391 51.8818 331.553 50.4951 331.553 48.1123V48.0928C331.553 45.71 330.381 44.3428 328.584 44.3428C326.816 44.3428 325.625 45.7197 325.625 48.0928V48.1123C325.625 50.5049 326.807 51.8818 328.603 51.8818ZM336.21 53.1904V43.0342H337.909V44.4795H337.948C338.495 43.5322 339.53 42.8389 341.073 42.8389C343.299 42.8389 344.589 44.2842 344.589 46.5986V53.1904H342.889V46.9014C342.889 45.251 342.118 44.3428 340.555 44.3428C338.954 44.3428 337.909 45.4854 337.909 47.2139V53.1904H336.21ZM351.56 53.3857C349.167 53.3857 347.722 52.165 347.517 50.3486L347.507 50.2607H349.207L349.226 50.3584C349.431 51.374 350.183 51.9697 351.57 51.9697C352.947 51.9697 353.767 51.3936 353.767 50.4756V50.4658C353.767 49.7334 353.386 49.3232 352.234 49.04L350.623 48.6494C348.708 48.1904 347.781 47.3018 347.781 45.8369V45.8271C347.781 44.0791 349.314 42.8389 351.511 42.8389C353.738 42.8389 355.154 44.1377 355.281 45.8369L355.29 45.9639H353.669L353.66 45.8955C353.523 44.9092 352.771 44.2549 351.511 44.2549C350.281 44.2549 349.519 44.8506 349.519 45.749V45.7588C349.519 46.4521 349.978 46.9307 351.101 47.2041L352.712 47.5947C354.763 48.0928 355.505 48.9033 355.505 50.3486V50.3584C355.505 52.1357 353.826 53.3857 351.56 53.3857ZM364.038 53.1904V39.0986H365.796V53.1904H364.038ZM369.467 53.1904V43.0342H371.166V44.4795H371.205C371.752 43.5322 372.787 42.8389 374.33 42.8389C376.557 42.8389 377.846 44.2842 377.846 46.5986V53.1904H376.146V46.9014C376.146 45.251 375.375 44.3428 373.812 44.3428C372.211 44.3428 371.166 45.4854 371.166 47.2139V53.1904H369.467ZM384.817 53.3857C382.424 53.3857 380.979 52.165 380.774 50.3486L380.764 50.2607H382.464L382.483 50.3584C382.688 51.374 383.44 51.9697 384.827 51.9697C386.204 51.9697 387.024 51.3936 387.024 50.4756V50.4658C387.024 49.7334 386.643 49.3232 385.491 49.04L383.88 48.6494C381.966 48.1904 381.038 47.3018 381.038 45.8369V45.8271C381.038 44.0791 382.571 42.8389 384.768 42.8389C386.995 42.8389 388.411 44.1377 388.538 45.8369L388.548 45.9639H386.926L386.917 45.8955C386.78 44.9092 386.028 44.2549 384.768 44.2549C383.538 44.2549 382.776 44.8506 382.776 45.749V45.7588C382.776 46.4521 383.235 46.9307 384.358 47.2041L385.969 47.5947C388.02 48.0928 388.762 48.9033 388.762 50.3486V50.3584C388.762 52.1357 387.083 53.3857 384.817 53.3857ZM395.031 53.3857C393.165 53.3857 392.248 52.5459 392.248 50.6025V44.4404H390.763V43.0342H392.248V40.29H394.005V43.0342H395.939V44.4404H394.005V50.5928C394.005 51.6768 394.484 51.9795 395.392 51.9795C395.597 51.9795 395.792 51.9502 395.939 51.9404V53.3174C395.724 53.3467 395.363 53.3857 395.031 53.3857ZM399.922 41.3154C399.336 41.3154 398.858 40.8369 398.858 40.251C398.858 39.6553 399.336 39.1865 399.922 39.1865C400.518 39.1865 400.987 39.6553 400.987 40.251C400.987 40.8369 400.518 41.3154 399.922 41.3154ZM399.073 53.1904V43.0342H400.772V53.1904H399.073ZM407.587 53.3857C405.722 53.3857 404.804 52.5459 404.804 50.6025V44.4404H403.319V43.0342H404.804V40.29H406.562V43.0342H408.495V44.4404H406.562V50.5928C406.562 51.6768 407.04 51.9795 407.948 51.9795C408.153 51.9795 408.349 51.9502 408.495 51.9404V53.3174C408.28 53.3467 407.919 53.3857 407.587 53.3857ZM414.988 53.3857C412.762 53.3857 411.473 51.9404 411.473 49.626V43.0342H413.172V49.3232C413.172 50.9736 413.943 51.8818 415.506 51.8818C417.107 51.8818 418.152 50.7393 418.152 49.0107V43.0342H419.851V53.1904H418.152V51.7451H418.113C417.566 52.6924 416.531 53.3857 414.988 53.3857ZM426.569 53.3857C424.704 53.3857 423.786 52.5459 423.786 50.6025V44.4404H422.301V43.0342H423.786V40.29H425.544V43.0342H427.477V44.4404H425.544V50.5928C425.544 51.6768 426.022 51.9795 426.93 51.9795C427.135 51.9795 427.331 51.9502 427.477 51.9404V53.3174C427.262 53.3467 426.901 53.3857 426.569 53.3857ZM434.39 53.3857C431.47 53.3857 429.712 51.3447 429.712 48.1514V48.1416C429.712 44.9971 431.509 42.8389 434.283 42.8389C437.056 42.8389 438.746 44.8994 438.746 47.9463V48.5713H431.431C431.47 50.6611 432.623 51.8818 434.429 51.8818C435.718 51.8818 436.626 51.2373 436.919 50.3682L436.949 50.2803H438.619L438.599 50.3779C438.267 52.0576 436.607 53.3857 434.39 53.3857ZM434.273 44.3428C432.798 44.3428 431.646 45.3486 431.46 47.2432H437.017C436.851 45.2705 435.757 44.3428 434.273 44.3428ZM451.175 53.3857C448.353 53.3857 446.468 51.3447 446.468 48.1123V48.0928C446.468 44.8604 448.362 42.8389 451.165 42.8389C453.968 42.8389 455.872 44.8506 455.872 48.0928V48.1123C455.872 51.3545 453.978 53.3857 451.175 53.3857ZM451.185 51.8818C452.972 51.8818 454.134 50.4951 454.134 48.1123V48.0928C454.134 45.71 452.962 44.3428 451.165 44.3428C449.398 44.3428 448.206 45.7197 448.206 48.0928V48.1123C448.206 50.5049 449.388 51.8818 451.185 51.8818ZM459.338 53.1904V44.4404H457.922V43.0342H459.338V41.7842C459.338 39.8311 460.246 38.9033 462.121 38.9033C462.502 38.9033 462.902 38.9326 463.156 38.9717V40.3486C462.951 40.3193 462.687 40.3096 462.424 40.3096C461.486 40.3096 461.017 40.7881 461.017 41.7939V43.0342H463.107V44.4404H461.037V53.1904H459.338ZM475.195 53.1904V40.6807H470.751V39.0986H481.396V40.6807H476.953V53.1904H475.195ZM485.731 53.3857C482.811 53.3857 481.053 51.3447 481.053 48.1514V48.1416C481.053 44.9971 482.85 42.8389 485.623 42.8389C488.397 42.8389 490.086 44.8994 490.086 47.9463V48.5713H482.772C482.811 50.6611 483.963 51.8818 485.77 51.8818C487.059 51.8818 487.967 51.2373 488.26 50.3682L488.289 50.2803H489.959L489.94 50.3779C489.608 52.0576 487.948 53.3857 485.731 53.3857ZM485.614 44.3428C484.139 44.3428 482.987 45.3486 482.801 47.2432H488.358C488.192 45.2705 487.098 44.3428 485.614 44.3428ZM497.214 53.3857C494.333 53.3857 492.507 51.335 492.507 48.1025V48.0928C492.507 44.8896 494.372 42.8389 497.194 42.8389C499.724 42.8389 501.218 44.5186 501.433 46.2568L501.442 46.335H499.782L499.763 46.2568C499.509 45.2412 498.689 44.3428 497.194 44.3428C495.427 44.3428 494.245 45.8076 494.245 48.1123V48.1221C494.245 50.4854 495.456 51.8818 497.214 51.8818C498.601 51.8818 499.489 51.1006 499.773 49.9678L499.792 49.8896H501.462L501.452 49.958C501.179 51.8916 499.509 53.3857 497.214 53.3857ZM504.312 53.1904V39.0986H506.012V44.6553H506.051C506.598 43.5127 507.701 42.8389 509.215 42.8389C511.373 42.8389 512.848 44.5088 512.848 46.9697V53.1904H511.148V47.2627C511.148 45.4268 510.211 44.3428 508.629 44.3428C507.057 44.3428 506.012 45.5342 506.012 47.2627V53.1904H504.312ZM516.206 53.1904V43.0342H517.905V44.4795H517.944C518.491 43.5322 519.526 42.8389 521.069 42.8389C523.296 42.8389 524.585 44.2842 524.585 46.5986V53.1904H522.885V46.9014C522.885 45.251 522.114 44.3428 520.551 44.3428C518.95 44.3428 517.905 45.4854 517.905 47.2139V53.1904H516.206ZM532.162 53.3857C529.339 53.3857 527.455 51.3447 527.455 48.1123V48.0928C527.455 44.8604 529.349 42.8389 532.152 42.8389C534.955 42.8389 536.859 44.8506 536.859 48.0928V48.1123C536.859 51.3545 534.964 53.3857 532.162 53.3857ZM532.171 51.8818C533.958 51.8818 535.121 50.4951 535.121 48.1123V48.0928C535.121 45.71 533.949 44.3428 532.152 44.3428C530.384 44.3428 529.193 45.7197 529.193 48.0928V48.1123C529.193 50.5049 530.374 51.8818 532.171 51.8818ZM539.866 53.1904V39.0986H541.565V53.1904H539.866ZM549.269 53.3857C546.446 53.3857 544.562 51.3447 544.562 48.1123V48.0928C544.562 44.8604 546.456 42.8389 549.259 42.8389C552.062 42.8389 553.966 44.8506 553.966 48.0928V48.1123C553.966 51.3545 552.071 53.3857 549.269 53.3857ZM549.278 51.8818C551.065 51.8818 552.228 50.4951 552.228 48.1123V48.0928C552.228 45.71 551.056 44.3428 549.259 44.3428C547.491 44.3428 546.3 45.7197 546.3 48.0928V48.1123C546.3 50.5049 547.482 51.8818 549.278 51.8818ZM561.182 56.8037C558.672 56.8037 557.09 55.6221 556.758 54.1182L556.738 54.0303H558.447L558.486 54.1182C558.808 54.8506 559.775 55.2998 561.162 55.2998C562.949 55.2998 563.965 54.3135 563.965 52.7412V51.4424H563.926C563.32 52.5654 562.148 53.2881 560.693 53.2881C558.135 53.2881 556.387 51.2275 556.387 48.0537V48.0439C556.387 44.8896 558.154 42.8389 560.732 42.8389C562.168 42.8389 563.301 43.6201 563.926 44.7529H563.965V43.0342H565.664V52.9072C565.664 55.2607 563.935 56.8037 561.182 56.8037ZM561.064 51.7842C562.793 51.7842 563.965 50.3096 563.965 48.0537V48.0439C563.965 45.8076 562.783 44.3428 561.064 44.3428C559.258 44.3428 558.125 45.7881 558.125 48.0439V48.0537C558.125 50.3584 559.258 51.7842 561.064 51.7842ZM570.038 56.6084C569.706 56.6084 569.344 56.5693 569.13 56.5303V55.1436C569.276 55.1729 569.471 55.2021 569.676 55.2021C570.751 55.2021 571.346 54.9287 571.757 53.7764L571.962 53.2002L568.192 43.0342H570.008L572.811 51.4912H572.85L575.663 43.0342H577.45L573.485 53.8252C572.762 55.7686 571.874 56.6084 570.038 56.6084Z" fill="white"></path><defs><clipPath id="clip0_367_2906"><rect width="49.2537" height="60" fill="white" transform="translate(0 0.19043)"></rect></clipPath></defs></svg>